<svg xmlns="http://www.w3.org/2000/svg" xmlns:xlink="http://www.w3.org/1999/xlink" width="38px" height="38px" viewBox="0 0 38 38" version="1.1">
    <!-- Generator: sketchtool 49.3 (51167) - http://www.bohemiancoding.com/sketch -->
    <title>3AA0AD04-B0B4-422F-9B47-F66CFBA50319</title>
    <desc>Created with sketchtool.</desc>
    <defs/>
    <g id="Mockups" stroke="none" stroke-width="1" fill="none" fill-rule="evenodd">
        <g id="assets" transform="translate(-33.000000, -128.000000)" fill="#3C5A99">
            <path d="M68.9027629,128 L35.0972371,128 C33.9388446,128 33,128.938841 33,130.097229 L33,163.902628 C33,165.060874 33.9388446,166 35.0972371,166 L53.2970692,166 L53.2970692,151.28437 L48.344856,151.28437 L48.344856,145.549381 L53.2970692,145.549381 L53.2970692,141.32004 C53.2970692,136.411982 56.2947088,133.739403 60.6731362,133.739403 C62.7705156,133.739403 64.573029,133.89545 65.0982637,133.965215 L65.0982637,139.094528 L62.0616125,139.095952 C59.6804724,139.095952 59.219308,140.22743 59.219308,141.887844 L59.219308,145.549381 L64.8983641,145.549381 L64.158992,151.28437 L59.219308,151.28437 L59.219308,166 L68.9027629,166 C70.061013,166 71,165.060874 71,163.902628 L71,130.097229 C71,128.938841 70.061013,128 68.9027629,128" id="Fill-1"/>
        </g>
    </g>
</svg>