<svg xmlns="http://www.w3.org/2000/svg" xmlns:xlink="http://www.w3.org/1999/xlink" width="47px" height="38px" viewBox="0 0 47 38" version="1.1">
    <!-- Generator: Sketch 49.3 (51167) - http://www.bohemiancoding.com/sketch -->
    <title>twitter-logo</title>
    <desc>Created with Sketch.</desc>
    <defs/>
    <g id="Assets" stroke="none" stroke-width="1" fill="none" fill-rule="evenodd">
        <path d="M42.0069558,10.6999682 C42.0069558,10.2846875 42.0069558,9.87127739 41.9788963,9.45973792 C43.8566974,8.10149092 45.4776468,6.41973216 46.7658486,4.4932048 C45.014709,5.26914708 43.1570764,5.77800979 41.254961,6.00280639 C43.257931,4.80369647 44.7570188,2.91770449 45.4732405,0.695817896 C43.5898068,1.81343809 41.5292822,2.60108105 39.3805858,3.02475716 C36.4064326,-0.137747291 31.6805315,-0.911781375 27.8528963,1.13668877 C24.0252611,3.18515891 22.0478061,7.54668872 23.0293745,11.7755827 C15.3146851,11.3888283 8.12692386,7.74497132 3.25490306,1.75085544 C0.70826458,6.13495682 2.00903819,11.7435191 6.22546976,14.5590861 C4.69854835,14.5138308 3.20491855,14.1019278 1.87063394,13.3581391 C1.87063394,13.3974224 1.87063394,13.4385763 1.87063394,13.4797303 C1.87188378,18.047057 5.09140072,21.980892 9.56829262,22.8852777 C8.15572005,23.2705162 6.67363734,23.3268302 5.23590441,23.0498935 C6.49287301,26.9584388 10.0950156,29.6359913 14.1999823,29.7130916 C10.8024154,32.3832943 6.60531978,33.8328406 2.28404405,33.8284863 C1.52064501,33.8270208 0.757988479,33.7807991 0,33.6900594 C4.38782623,36.5058808 9.49330527,37.9994705 14.7069241,37.9925175 C32.3544847,38 42.0069558,23.3791251 42.0069558,10.6999682 Z" id="Shape" fill="#1DA1F2" fill-rule="nonzero"/>
    </g>
</svg>